<svg xmlns="http://www.w3.org/2000/svg" viewBox="0 0 18.66 18.65"><defs><style>.cls-1{fill:#fff;}</style></defs><g id="Layer_2" data-name="Layer 2"><g id="Layer_1-2" data-name="Layer 1"><path class="cls-1" d="M18.5,4.48c.46-.46-.13-1.81-1.32-3s-2.51-1.77-3-1.34h0L7.56,6.08a3.11,3.11,0,0,0-4.24.14A1,1,0,0,0,3,7a1,1,0,0,0,.31.74l3,3-6.17,7a.6.6,0,0,0,0,.79.59.59,0,0,0,.83,0l7-6.18.3.3,1.55,1.55h0L11,15.33a1.05,1.05,0,0,0,.74.3,1.09,1.09,0,0,0,.74-.3,3.12,3.12,0,0,0,.13-4.25L18.48,4.5Z"/></g></g></svg>