<svg xmlns="http://www.w3.org/2000/svg" viewBox="0 0 23.57 17.76"><defs><style>.cls-1{fill:#fff;}</style></defs><g id="Layer_2" data-name="Layer 2"><g id="Layer_1-2" data-name="Layer 1"><circle class="cls-1" cx="7.48" cy="4.18" r="4.18"/><path class="cls-1" d="M4.16,10.36h6.21a4.16,4.16,0,0,1,4.16,4.16v0a3.24,3.24,0,0,1-3.24,3.24h-8A3.24,3.24,0,0,1,0,14.52v0a4.16,4.16,0,0,1,4.16-4.16Z"/><circle class="cls-1" cx="18.52" cy="5.51" r="3"/><path class="cls-1" d="M20.1,9.94H16.62a3.44,3.44,0,0,0-2.7,1.33,5.48,5.48,0,0,1,1.6,3.91v.07h6.21a1.84,1.84,0,0,0,1.84-1.84A3.47,3.47,0,0,0,20.1,9.94Z"/></g></g></svg>