<svg xmlns="http://www.w3.org/2000/svg" xmlns:xlink="http://www.w3.org/1999/xlink" viewBox="0 0 20.2 20.2"><defs><style>.cls-1{fill:url(#linear-gradient);}.cls-2{fill:url(#linear-gradient-2);}.cls-3{fill:#9de7f9;}</style><linearGradient id="linear-gradient" x1="2.23" y1="3.82" x2="19.4" y2="17.52" gradientUnits="userSpaceOnUse"><stop offset="0" stop-color="#44c68f"/><stop offset="1" stop-color="#076dff"/></linearGradient><linearGradient id="linear-gradient-2" x1="0.32" y1="2.35" x2="19.87" y2="2.35" gradientUnits="userSpaceOnUse"><stop offset="0" stop-color="#076dff"/><stop offset="1" stop-color="#29abe2"/></linearGradient></defs><g id="Layer_2" data-name="Layer 2"><g id="Layer_1-2" data-name="Layer 1"><path class="cls-1" d="M17.82,19.55a46.58,46.58,0,0,1-15.45,0A2.13,2.13,0,0,1,.65,17.82a46.05,46.05,0,0,1,0-15.45A2.13,2.13,0,0,1,2.37.65a46.05,46.05,0,0,1,15.45,0,2.13,2.13,0,0,1,1.73,1.72,46.58,46.58,0,0,1,0,15.45A2.13,2.13,0,0,1,17.82,19.55Z"/><path class="cls-2" d="M17.82.65A46.05,46.05,0,0,0,2.37.65,2.13,2.13,0,0,0,.65,2.37Q.46,3.54.32,4.71H19.87c-.09-.78-.19-1.56-.32-2.34A2.13,2.13,0,0,0,17.82.65Z"/><rect class="cls-3" x="3.96" y="6.82" width="5.03" height="4.33" rx="0.78"/><rect class="cls-3" x="11.21" y="6.82" width="5.03" height="4.33" rx="0.78"/><rect class="cls-3" x="3.96" y="13.26" width="5.03" height="4.33" rx="0.78"/><rect class="cls-3" x="11.21" y="13.26" width="5.03" height="4.33" rx="0.78"/></g></g></svg>