<svg xmlns="http://www.w3.org/2000/svg" xmlns:xlink="http://www.w3.org/1999/xlink" viewBox="0 0 20.21 20.21"><defs><style>.cls-1{fill:url(#linear-gradient);}.cls-2{fill:url(#linear-gradient-2);}.cls-3{fill:#9de7f9;}</style><linearGradient id="linear-gradient" x1="1.37" y1="0.63" x2="18.83" y2="19.57" gradientUnits="userSpaceOnUse"><stop offset="0" stop-color="#44c68f"/><stop offset="1" stop-color="#076dff"/></linearGradient><linearGradient id="linear-gradient-2" x1="10.17" y1="14.53" x2="13.73" y2="14.53" gradientUnits="userSpaceOnUse"><stop offset="0" stop-color="#29cad5"/><stop offset="1" stop-color="#00beab"/></linearGradient></defs><g id="Layer_2" data-name="Layer 2"><g id="Layer_1-2" data-name="Layer 1"><path class="cls-1" d="M17.84,19.56a46.11,46.11,0,0,1-15.46,0A2.12,2.12,0,0,1,.65,17.84a46.11,46.11,0,0,1,0-15.46A2.13,2.13,0,0,1,2.38.65a46.11,46.11,0,0,1,15.46,0,2.12,2.12,0,0,1,1.72,1.73,46.11,46.11,0,0,1,0,15.46A2.1,2.1,0,0,1,17.84,19.56Z"/><path class="cls-2" d="M11.39,12.85l-.08,0h0l0,0h0l-.06,0,0,0,0,0,0,0,0,0a1.77,1.77,0,0,0,1.1,3.27h.15l.07,0h.11l.07,0a1.78,1.78,0,1,0-1.12-3.37Z"/><path class="cls-3" d="M16.1,10.15,15.76,10a2.76,2.76,0,0,1-1.62-1.7l-.48-1.45h0A4,4,0,0,0,9.3,4.17,1.06,1.06,0,0,0,7.82,2.8l-.06,0h0l-.06,0h0a1.06,1.06,0,0,0-.26,1.35,1.11,1.11,0,0,0,.44.42l-.06,0h0a1.82,1.82,0,0,0-.23.15h0A4,4,0,0,0,6.05,9.4l.47,1.42a2.74,2.74,0,0,1-.3,2.38L6,13.51a1.41,1.41,0,0,0-.16,1.23,1.43,1.43,0,0,0,1.81.91l6.22-2.08L16,12.86h0a1.43,1.43,0,0,0,1-1.59,1.74,1.74,0,0,0-.05-.22h0A1.45,1.45,0,0,0,16.1,10.15Z"/></g></g></svg>