<svg xmlns="http://www.w3.org/2000/svg" xmlns:xlink="http://www.w3.org/1999/xlink" viewBox="0 0 20.18 20.18"><defs><style>.cls-1{fill:url(#linear-gradient);}.cls-2{fill:#9de7f9;}</style><linearGradient id="linear-gradient" y1="10.09" x2="20.18" y2="10.09" gradientUnits="userSpaceOnUse"><stop offset="0" stop-color="#44c68f"/><stop offset="1" stop-color="#076dff"/></linearGradient></defs><g id="Layer_2" data-name="Layer 2"><g id="Layer_1-2" data-name="Layer 1"><path class="cls-1" d="M17.81,19.53a46.52,46.52,0,0,1-15.44,0A2.12,2.12,0,0,1,.65,17.81a46,46,0,0,1,0-15.44A2.1,2.1,0,0,1,2.37.65a46,46,0,0,1,15.44,0,2.12,2.12,0,0,1,1.72,1.72,46.52,46.52,0,0,1,0,15.44A2.13,2.13,0,0,1,17.81,19.53Z"/><circle class="cls-2" cx="5.89" cy="6.13" r="3.09"/><rect class="cls-2" x="11.77" y="3.32" width="5.61" height="5.61" rx="0.49"/><path class="cls-2" d="M10.09,17.14H6.59c-.35,0-.56-.32-.39-.58L8,13.94,9.7,11.33a.49.49,0,0,1,.78,0l1.75,2.61L14,16.56c.17.26-.05.58-.4.58Z"/></g></g></svg>