<svg xmlns="http://www.w3.org/2000/svg" xmlns:xlink="http://www.w3.org/1999/xlink" viewBox="0 0 20.21 20.21"><defs><style>.cls-1{fill:#9D9D9D}.cls-2{fill:#D4D4D4;}</style><linearGradient id="linear-gradient" x1="1.56" y1="0.67" x2="18.98" y2="19.9" gradientUnits="userSpaceOnUse"><stop offset="0" stop-color="#44c68f"/><stop offset="1" stop-color="#076dff"/></linearGradient></defs><g id="Layer_2" data-name="Layer 2"><g id="Layer_1-2" data-name="Layer 1"><path class="cls-1" d="M17.84,19.56a46.11,46.11,0,0,1-15.46,0A2.12,2.12,0,0,1,.65,17.84a46.11,46.11,0,0,1,0-15.46A2.13,2.13,0,0,1,2.38.65a46.11,46.11,0,0,1,15.46,0,2.12,2.12,0,0,1,1.72,1.73,46.11,46.11,0,0,1,0,15.46A2.1,2.1,0,0,1,17.84,19.56Z"/><path class="cls-2" d="M3.61,16.6,7.19,3.24,17,13ZM7.93,6l-2.3,8.58,8.58-2.3Z"/><circle class="cls-2" cx="7.56" cy="4.62" r="1.86"/><circle class="cls-2" cx="15.59" cy="12.65" r="1.86"/><circle class="cls-2" cx="4.62" cy="15.59" r="1.86"/></g></g></svg>