<svg xmlns="http://www.w3.org/2000/svg" xmlns:xlink="http://www.w3.org/1999/xlink" viewBox="0 0 20.18 20.18"><defs><style>.cls-1{fill:url(#linear-gradient);}.cls-2{fill:#9de7f9;}</style><linearGradient id="linear-gradient" y1="10.09" x2="20.18" y2="10.09" gradientUnits="userSpaceOnUse"><stop offset="0" stop-color="#44c68f"/><stop offset="1" stop-color="#076dff"/></linearGradient></defs><g id="Layer_2" data-name="Layer 2"><g id="Layer_1-2" data-name="Layer 1"><path class="cls-1" d="M17.81,19.53a46.52,46.52,0,0,1-15.44,0A2.12,2.12,0,0,1,.65,17.81a46,46,0,0,1,0-15.44A2.1,2.1,0,0,1,2.37.65a46,46,0,0,1,15.44,0,2.12,2.12,0,0,1,1.72,1.72,46.52,46.52,0,0,1,0,15.44A2.13,2.13,0,0,1,17.81,19.53Z"/><path class="cls-2" d="M10.25,7.45V10.9l3,1.77a.57.57,0,0,0,.78-.2h0a.57.57,0,0,0-.2-.78l-2.35-1.4V7.45a.61.61,0,0,0-.61-.61h0A.61.61,0,0,0,10.25,7.45Z"/><path class="cls-2" d="M11.06,2.77a7.31,7.31,0,0,0-7.31,7.32H2.15a.35.35,0,0,0-.25.6l2.38,2.43a.36.36,0,0,0,.51,0l2.42-2.43a.35.35,0,0,0-.25-.6H5.37a5.69,5.69,0,1,1,5.69,5.69,5.61,5.61,0,0,1-3.47-1.2.82.82,0,0,0-1.08.07h0a.8.8,0,0,0,.07,1.21,7.23,7.23,0,0,0,4.48,1.54,7.32,7.32,0,1,0,0-14.63Z"/></g></g></svg>