<svg xmlns="http://www.w3.org/2000/svg" xmlns:xlink="http://www.w3.org/1999/xlink" viewBox="0 0 20.21 20.21"><defs><style>.cls-1{fill:url(#linear-gradient);}.cls-2{fill:#9de7f9;}</style><linearGradient id="linear-gradient" x1="1.56" y1="0.67" x2="18.98" y2="19.9" gradientUnits="userSpaceOnUse"><stop offset="0" stop-color="#44c68f"/><stop offset="1" stop-color="#076dff"/></linearGradient></defs><g id="Layer_2" data-name="Layer 2"><g id="Layer_1-2" data-name="Layer 1"><path class="cls-1" d="M17.84,19.56a46.11,46.11,0,0,1-15.46,0A2.12,2.12,0,0,1,.65,17.84a46.11,46.11,0,0,1,0-15.46A2.13,2.13,0,0,1,2.38.65a46.11,46.11,0,0,1,15.46,0,2.12,2.12,0,0,1,1.72,1.73,46.11,46.11,0,0,1,0,15.46A2.1,2.1,0,0,1,17.84,19.56Z"/><path class="cls-2" d="M6.53,10.35V7.12A.83.83,0,0,1,7.78,6.4L10.57,8l2.8,1.61a.84.84,0,0,1,0,1.45l-2.8,1.61L7.78,14.29a.83.83,0,0,1-1.25-.72Z"/></g></g></svg>